<svg xmlns="http://www.w3.org/2000/svg" width="551" height="183" viewBox="0 0 551 183" version="1.1"><path d="M 275.447 72 C 275.447 89.875, 275.582 97.188, 275.748 88.250 C 275.914 79.312, 275.914 64.687, 275.748 55.750 C 275.582 46.813, 275.447 54.125, 275.447 72" stroke="none" fill="#fc5454" fill-rule="evenodd"/><path d="M 170 40.583 C 145.257 47.110, 129.673 67.174, 129.673 92.500 C 129.673 108.123, 134.821 120.670, 145.398 130.827 C 167.010 151.579, 204.073 151.231, 225.013 130.079 C 235.877 119.106, 240.009 108.746, 239.988 92.540 C 239.967 76.680, 235.546 65.569, 225.003 54.885 C 214.109 43.843, 201.654 38.983, 184.500 39.081 C 179.550 39.109, 173.025 39.785, 170 40.583 M 415.500 40.402 C 408.412 42.650, 403.339 45.808, 399.122 50.599 L 395 55.282 395 47.641 L 395 40 389.500 40 L 384 40 384 92.500 L 384 145 390 145 L 396 145 396 109.182 C 396 66.833, 396.187 65.677, 404.333 57.547 C 410.439 51.452, 415.954 49.466, 426.500 49.566 C 434.937 49.646, 441.042 52.083, 446.256 57.451 C 453.011 64.407, 453.261 66.082, 453.757 107.750 L 454.201 145 459.534 145 L 464.867 145 465.184 108.250 L 465.500 71.500 468.631 64.891 C 473.345 54.943, 480.719 50.189, 492.493 49.507 C 503.367 48.877, 512.106 52.339, 517.505 59.417 C 522.659 66.175, 523 69.228, 523 108.659 L 523 145 529 145 L 535 145 534.985 108.750 C 534.969 69.475, 534.376 63.730, 529.472 55.362 C 522.730 43.857, 510.978 38.468, 494.195 39.187 C 481.212 39.743, 474.115 42.849, 466.433 51.337 C 463.445 54.639, 461 56.895, 461 56.350 C 461 54.630, 453.861 46.937, 450.007 44.505 C 441.799 39.323, 425.147 37.343, 415.500 40.402 M 17 92.500 L 17 145 23 145 L 29 145 29 121 L 29 97 61 97 L 93 97 93 121 L 93 145 99 145 L 105 145 105 92.500 L 105 40 99 40 L 93 40 93 63 L 93 86 61 86 L 29 86 29 63 L 29 40 23 40 L 17 40 17 92.500 M 264 76.411 C 264 109.266, 264.184 113.413, 265.884 118.875 C 271.362 136.476, 282.059 144.700, 300.802 145.724 C 316.494 146.581, 328.473 142.299, 335.939 133.163 L 338.933 129.500 338.966 137.250 L 339 145 344.500 145 L 350 145 350 92.500 L 350 40 344 40 L 338 40 338 74.818 C 338 113.485, 337.627 116.400, 331.690 124.184 C 327.155 130.129, 320.870 133.708, 312.720 134.986 C 300.002 136.978, 287.884 133.017, 281.734 124.855 C 276.015 117.266, 275.662 114.607, 275.218 75.750 L 274.810 40 269.405 40 L 264 40 264 76.411 M 176.553 50.013 C 173.832 50.496, 168.383 52.483, 164.444 54.430 C 135.716 68.628, 132.912 109.837, 159.443 127.937 C 167.028 133.113, 174.496 135.239, 185 135.214 C 195.736 135.188, 203.017 133.149, 210.328 128.118 C 231.574 113.501, 234.705 80.528, 216.561 62.459 C 213.778 59.687, 209.433 56.271, 206.907 54.868 C 198.526 50.213, 186.382 48.271, 176.553 50.013" stroke="none" fill="#fc4c4c" fill-rule="evenodd"/></svg>